#tb 0: 1/25
#media_type 0: video
#codec_id 0: rawvideo
#dimensions 0: 352x288
#sar 0: 0/1
0,          0,          0,        1,   152064, 0xabf9ae05
0,          1,          1,        1,   152064, 0x20418b16
0,          2,          2,        1,   152064, 0xc26760ae
0,          3,          3,        1,   152064, 0x7ed0c861
0,          4,          4,        1,   152064, 0x1a13d207
0,          5,          5,        1,   152064, 0x700bdb09
0,          6,          6,        1,   152064, 0x7fa6476e
0,          7,          7,        1,   152064, 0x951158c6
0,          8,          8,        1,   152064, 0x263a2dfc
0,          9,          9,        1,   152064, 0xa25c5371
0,         10,         10,        1,   152064, 0xd67bd5c5
0,         11,         11,        1,   152064, 0x73e6d7c0
0,         12,         12,        1,   152064, 0x509967e4
0,         13,         13,        1,   152064, 0x27574b8f
0,         14,         14,        1,   152064, 0xa701d36f
0,         15,         15,        1,   152064, 0x3d457728
0,         16,         16,        1,   152064, 0xe9977098
0,         17,         17,        1,   152064, 0x33b3542b
0,         18,         18,        1,   152064, 0x5635d3fa
0,         19,         19,        1,   152064, 0x51dbc0bd
0,         20,         20,        1,   152064, 0xa2287df1
0,         21,         21,        1,   152064, 0x24533377
0,         22,         22,        1,   152064, 0xfd05e083
0,         23,         23,        1,   152064, 0xfadce02d
0,         24,         24,        1,   152064, 0xf67cc1da
0,         25,         25,        1,   152064, 0x4e7bc654
0,         26,         26,        1,   152064, 0x5b686f11
0,         27,         27,        1,   152064, 0xb8e33dc8
0,         28,         28,        1,   152064, 0x0ff224ca
0,         29,         29,        1,   152064, 0xcd98c152
0,         30,         30,        1,   152064, 0x4fdfb595
0,         31,         31,        1,   152064, 0xb1b7f4fc
0,         32,         32,        1,   152064, 0x666ccd6a
0,         33,         33,        1,   152064, 0x80e9c1a3
0,         34,         34,        1,   152064, 0x304b9be3
0,         35,         35,        1,   152064, 0x9741fb13
0,         36,         36,        1,   152064, 0x5e016501
0,         37,         37,        1,   152064, 0x50dd4139
0,         38,         38,        1,   152064, 0x9a4ef972
0,         39,         39,        1,   152064, 0x03b7da4e
0,         40,         40,        1,   152064, 0x17fd7d8a
0,         41,         41,        1,   152064, 0xc0137bb0
0,         42,         42,        1,   152064, 0xaf167d40
0,         43,         43,        1,   152064, 0xde191051
0,         44,         44,        1,   152064, 0x1cdcee05
0,         45,         45,        1,   152064, 0xa8d1b139
0,         46,         46,        1,   152064, 0xade6bf62
0,         47,         47,        1,   152064, 0x4515a552
0,         48,         48,        1,   152064, 0xb05036fe
0,         49,         49,        1,   152064, 0xfa500b17
0,         50,         50,        1,   152064, 0x512dec06
0,         51,         51,        1,   152064, 0x0e77ff69
0,         52,         52,        1,   152064, 0x06f7b2cd
0,         53,         53,        1,   152064, 0x9bc99b67
0,         54,         54,        1,   152064, 0x6b68301b
0,         55,         55,        1,   152064, 0xe31321ba
0,         56,         56,        1,   152064, 0x9ad0192e
0,         57,         57,        1,   152064, 0xcc14d7c8
0,         58,         58,        1,   152064, 0xf6ab91ec
0,         59,         59,        1,   152064, 0xf76afbce
0,         60,         60,        1,   152064, 0xb7d7f1dc
0,         61,         61,        1,   152064, 0xca95e688
0,         62,         62,        1,   152064, 0xc36bb8ac
0,         63,         63,        1,   152064, 0xc1c06a2e
0,         64,         64,        1,   152064, 0xf2a08f2a
0,         65,         65,        1,   152064, 0xb81013d2
0,         66,         66,        1,   152064, 0xf30cee41
0,         67,         67,        1,   152064, 0xad85c0d6
0,         68,         68,        1,   152064, 0x087b7807
0,         69,         69,        1,   152064, 0x178c39f0
0,         70,         70,        1,   152064, 0x6e0e3e66
0,         71,         71,        1,   152064, 0x9a020bcf
0,         72,         72,        1,   152064, 0xc33d4749
0,         73,         73,        1,   152064, 0x6370dbad
0,         74,         74,        1,   152064, 0x928cbe47
0,         75,         75,        1,   152064, 0xb8b036cc
0,         76,         76,        1,   152064, 0x79d92c37
0,         77,         77,        1,   152064, 0xc4cf0d8f
0,         78,         78,        1,   152064, 0xfe706c76
0,         79,         79,        1,   152064, 0x6a37de81
0,         80,         80,        1,   152064, 0x659eb2c1
0,         81,         81,        1,   152064, 0x0630855f
0,         82,         82,        1,   152064, 0xfa964f67
0,         83,         83,        1,   152064, 0xc5a1ff95
0,         84,         84,        1,   152064, 0xa131b89f
0,         85,         85,        1,   152064, 0x73007c16
0,         86,         86,        1,   152064, 0x4d237a3b
0,         87,         87,        1,   152064, 0xe68f44be
0,         88,         88,        1,   152064, 0x065f0be3
0,         89,         89,        1,   152064, 0x39cab454
